<?xml version="1.0" encoding="iso-8859-1"?>
<!-- Generator: Adobe Illustrator 19.0.0, SVG Export Plug-In . SVG Version: 6.00 Build 0)  -->
<svg version="1.1" id="Layer_1" xmlns="http://www.w3.org/2000/svg" xmlns:xlink="http://www.w3.org/1999/xlink" x="0px" y="0px"
	 viewBox="0 0 1000 1000" style="enable-background:new 0 0 1000 1000;" xml:space="preserve">
<g id="XMLID_3_">
	<path id="XMLID_4_" style="fill:#333333;" d="M810.38,198.908c-0.096-1.51-1.575-1.636-2.381-2.442s-0.932-2.285-2.442-2.381
		L810.38,198.908z"/>
	<path id="XMLID_6_" style="fill:#333333;" d="M864.663,308.626l-113.35,113.35L624.034,379.55l-42.426-127.279l112.998-112.998
		c-59.753-8.129-123.038,10.571-169.201,56.734c-78.105,78.105-78.052,204.791,0.053,282.896
		c78.105,78.105,204.659,78.026,282.763-0.079C854.591,432.452,873.521,369.065,864.663,308.626z"/>
</g>
<path id="XMLID_8_" style="fill:#333333;" d="M511.156,492.886c-19.753-19.753-35.456-42.784-46.14-67.455L171.485,718.961
	c-15.621,15.621-15.466,41.809,0.155,57.43l56.569,56.569c15.621,15.621,40.793,14.759,56.414-0.862L577.97,538.751
	C553.416,527.95,530.74,512.469,511.156,492.886z M242.704,761.896c-7.811-7.81-7.81-20.474,0-28.284
	c7.811-7.81,20.474-7.81,28.284,0c7.81,7.81,7.81,20.474,0,28.284C263.178,769.706,250.515,769.706,242.704,761.896z"/>
</svg>
