<?xml version="1.0" encoding="iso-8859-1"?>
<!-- Generator: Adobe Illustrator 19.0.0, SVG Export Plug-In . SVG Version: 6.00 Build 0)  -->
<svg version="1.1" id="Layer_1" xmlns="http://www.w3.org/2000/svg" xmlns:xlink="http://www.w3.org/1999/xlink" x="0px" y="0px"
	 viewBox="0 0 32 32" style="enable-background:new 0 0 32 32;" xml:space="preserve">
<path id="XMLID_11_" style="fill:#E6E6E6;" d="M20.25,2.75c-4.971,0-9,4.029-9,9c0,1.389,0.324,2.699,0.886,3.873c0,0,0,0,0-0.001
	l-8.506,8.506c-0.566,0.566-0.879,1.32-0.879,2.121s0.313,1.555,0.879,2.121s1.32,0.879,2.121,0.879s1.555-0.313,2.121-0.879
	l8.506-8.506c0,0,0,0,0,0c1.174,0.562,2.484,0.885,3.873,0.885c4.971,0,9-4.029,9-9C29.25,6.779,25.221,2.75,20.25,2.75z"/>
<circle id="XMLID_4_" style="fill:#B3B3B3;" cx="20.25" cy="11.75" r="7"/>
<path id="XMLID_9_" style="fill:#B3B3B3;" d="M13.95,18.262L13.95,18.262c-0.399-0.428-1.072-0.442-1.488-0.031l-7.419,7.325
	l0.007,0.007c-0.185,0.185-0.299,0.44-0.299,0.722c0,0.563,0.457,1.02,1.02,1.02c0.257,0,0.486-0.104,0.665-0.261l0.022,0.023
	l7.462-7.36C14.319,19.314,14.333,18.673,13.95,18.262z"/>
</svg>
