<?xml version="1.0" encoding="iso-8859-1"?>
<!-- Generator: Adobe Illustrator 19.0.0, SVG Export Plug-In . SVG Version: 6.00 Build 0)  -->
<svg version="1.1" id="Layer_1" xmlns="http://www.w3.org/2000/svg" xmlns:xlink="http://www.w3.org/1999/xlink" x="0px" y="0px"
	 viewBox="0 0 32 32" style="enable-background:new 0 0 32 32;" xml:space="preserve">
<path id="XMLID_3_" style="fill:#E6E6E6;" d="M25.998,32H6.002C4.896,32,4,31.104,4,29.998V10.829c0-0.531,0.211-1.04,0.586-1.416
	l8.827-8.827C13.789,0.211,14.298,0,14.829,0h11.169C27.104,0,28,0.896,28,2.002v27.996C28,31.104,27.104,32,25.998,32z"/>
<g id="XMLID_59_">
	<defs>
		<path id="XMLID_34_" d="M4,10.829h8.829c1.105,0,2-0.895,2-2V0H4V10.829z"/>
	</defs>
	<clipPath id="XMLID_2_">
		<use xlink:href="#XMLID_34_"  style="overflow:visible;"/>
	</clipPath>
	<path id="XMLID_58_" style="clip-path:url(#XMLID_2_);fill:#B3B3B3;" d="M25.998,32H6.002C4.896,32,4,31.104,4,29.998V10.829
		c0-0.531,0.211-1.04,0.586-1.416l8.827-8.827C13.789,0.211,14.298,0,14.829,0h11.169C27.104,0,28,0.896,28,2.002v27.996
		C28,31.104,27.104,32,25.998,32z"/>
</g>
</svg>
