<?xml version="1.0" encoding="iso-8859-1"?>
<!-- Generator: Adobe Illustrator 19.0.0, SVG Export Plug-In . SVG Version: 6.00 Build 0)  -->
<svg version="1.1" id="Layer_1" xmlns="http://www.w3.org/2000/svg" xmlns:xlink="http://www.w3.org/1999/xlink" x="0px" y="0px"
	 viewBox="0 0 100 100" style="enable-background:new 0 0 100 100;" xml:space="preserve">
<path id="XMLID_9_" style="fill:#333333;" d="M37.577,64.479l0.131-0.748c0.182-1.04,1.085-1.799,2.14-1.799h37.541
	c1.096,0,2.02-0.816,2.156-1.903l3.938-31.507c0.162-1.297-0.849-2.442-2.156-2.442H31.841c-0.899,0-1.704-0.553-2.028-1.392
	L25.48,13.441c-0.296-0.887-1.126-1.486-2.061-1.486h-4.111c-1.483,0-2.53,1.453-2.061,2.86l4.359,11.128
	c0.035,0.09,0.065,0.183,0.088,0.277l8.616,35.27c0.071,0.291,0.081,0.594,0.03,0.89l-0.236,1.351c0,0,0,0,0,0l-2.5,14.214
	c-0.232,1.33,0.791,2.456,2.14,2.456h2.847h0.347h40.938c1.2,0,2.173-0.973,2.173-2.173v-3.259c0-1.195-0.978-2.173-2.173-2.173
	H38.682c-1.351,0-2.375-1.22-2.14-2.551l1.035-5.857C37.577,64.388,37.577,64.479,37.577,64.479z"/>
<circle id="XMLID_3_" style="fill:#333333;" cx="40.195" cy="83.05" r="5.432"/>
<circle id="XMLID_7_" style="fill:#333333;" cx="66.269" cy="83.05" r="5.432"/>
</svg>
