<?xml version="1.0" encoding="iso-8859-1"?>
<!-- Generator: Adobe Illustrator 19.0.0, SVG Export Plug-In . SVG Version: 6.00 Build 0)  -->
<svg version="1.1" id="Layer_1" xmlns="http://www.w3.org/2000/svg" xmlns:xlink="http://www.w3.org/1999/xlink" x="0px" y="0px"
	 viewBox="0 0 32 32" style="enable-background:new 0 0 32 32;" xml:space="preserve">
<path id="XMLID_22_" style="fill:#E6E6E6;" d="M30.218,0H1.782C0.798,0,0,0.798,0,1.782V3.5C0,4.328,0.672,5,1.5,5h1.436
	C4.071,5,5,5.929,5,7.064v23.154C5,31.202,5.798,32,6.782,32h18.436C26.202,32,27,31.202,27,30.218V7.064
	C27,5.929,27.929,5,29.064,5h1.154C31.202,5,32,4.202,32,3.218V1.782C32,0.798,31.202,0,30.218,0z"/>
<path id="XMLID_73_" style="fill:#B3B3B3;" d="M8,8L8,8C7.448,8,7,8.448,7,9v20c0,0.552,0.448,1,1,1h0c0.552,0,1-0.448,1-1V9
	C9,8.448,8.552,8,8,8z"/>
<path id="XMLID_103_" style="fill:#B3B3B3;" d="M24,8L24,8c-0.552,0-1,0.448-1,1v20c0,0.552,0.448,1,1,1h0c0.552,0,1-0.448,1-1V9
	C25,8.448,24.552,8,24,8z"/>
<path id="XMLID_130_" style="fill:#B3B3B3;" d="M20,8L20,8c-0.552,0-1,0.448-1,1v20c0,0.552,0.448,1,1,1h0c0.552,0,1-0.448,1-1V9
	C21,8.448,20.552,8,20,8z"/>
<path id="XMLID_131_" style="fill:#B3B3B3;" d="M12,8L12,8c-0.552,0-1,0.448-1,1v20c0,0.552,0.448,1,1,1h0c0.552,0,1-0.448,1-1V9
	C13,8.448,12.552,8,12,8z"/>
<path id="XMLID_132_" style="fill:#B3B3B3;" d="M16,8L16,8c-0.552,0-1,0.448-1,1v20c0,0.552,0.448,1,1,1h0c0.552,0,1-0.448,1-1V9
	C17,8.448,16.552,8,16,8z"/>
</svg>
